<?xml version="1.0" encoding="UTF-8" standalone="no"?>
<!DOCTYPE svg PUBLIC "-//W3C//DTD SVG 1.1//EN" "http://www.w3.org/Graphics/SVG/1.1/DTD/svg11.dtd">
<svg width="100%" height="100%" viewBox="0 0 615 615" version="1.1" xmlns="http://www.w3.org/2000/svg" xmlns:xlink="http://www.w3.org/1999/xlink" xml:space="preserve" xmlns:serif="http://www.serif.com/" style="fill-rule:evenodd;clip-rule:evenodd;stroke-linejoin:round;stroke-miterlimit:2;">
    <rect id="bg" x="0" y="0" width="614.4" height="614.4" style="fill:rgb(245,188,217);"/>
    <g id="Artboard1" transform="matrix(1.2,0,0,1.2,0,0)">
        <rect x="0" y="0" width="512" height="512" style="fill:none;"/>
        <g id="icon" transform="matrix(1,0,0,1,7.5,3.33333)">
            <g transform="matrix(0.833333,0,0,0.833333,42.6667,42.6667)">
                <path d="M256,263.5C254.081,263.5 252.161,262.768 250.697,261.303L74.981,85.587C72.052,82.658 72.052,77.909 74.981,74.981C77.91,72.052 82.659,72.052 85.587,74.981L261.303,250.697C264.232,253.626 264.232,258.375 261.303,261.303C259.839,262.768 257.919,263.5 256,263.5Z" style="fill-opacity:0.37;fill-rule:nonzero;"/>
                <path d="M256,512C187.62,512 123.332,485.371 74.98,437.02C26.629,388.668 0,324.38 0,256C0,187.62 26.629,123.332 74.98,74.98C123.332,26.629 187.62,0 256,0C324.38,0 388.668,26.629 437.02,74.98C485.371,123.332 512,187.62 512,256C512,324.38 485.371,388.668 437.02,437.02C388.668,485.371 324.38,512 256,512ZM256,15C191.626,15 131.106,40.068 85.587,85.587C40.068,131.106 15,191.626 15,256C15,320.374 40.068,380.894 85.587,426.413C131.106,471.932 191.626,497 256,497C320.374,497 380.894,471.932 426.413,426.413C471.932,380.894 497,320.374 497,256C497,191.626 471.932,131.106 426.413,85.587C380.894,40.068 320.374,15 256,15Z" style="fill-opacity:0.37;fill-rule:nonzero;"/>
                <path d="M80.284,439.216C78.364,439.216 76.445,438.484 74.981,437.019C72.052,434.09 72.052,429.341 74.981,426.413L250.697,250.697C253.626,247.768 258.375,247.768 261.303,250.697C264.232,253.626 264.232,258.375 261.303,261.303L85.587,437.019C84.123,438.483 82.204,439.216 80.284,439.216Z" style="fill-opacity:0.37;fill-rule:nonzero;"/>
                <path d="M431.716,439.216C429.797,439.216 427.877,438.484 426.413,437.019L250.697,261.303C247.768,258.374 247.768,253.625 250.697,250.697C253.626,247.768 258.375,247.768 261.303,250.697L437.019,426.413C439.948,429.342 439.948,434.091 437.019,437.019C435.555,438.483 433.635,439.216 431.716,439.216Z" style="fill-opacity:0.37;fill-rule:nonzero;"/>
                <path d="M256,263.5C254.081,263.5 252.161,262.768 250.697,261.303C247.768,258.374 247.768,253.625 250.697,250.697L426.413,74.981C429.342,72.052 434.091,72.052 437.019,74.981C439.948,77.91 439.948,82.659 437.019,85.587L261.303,261.303C259.839,262.768 257.919,263.5 256,263.5Z" style="fill-opacity:0.37;fill-rule:nonzero;"/>
            </g>
            <g transform="matrix(0.833333,0,0,0.833333,42.6667,42.6667)">
                <circle cx="80.28" cy="80.28" r="36.983" style="fill-opacity:0.37;"/>
            </g>
            <g transform="matrix(0.833333,0,0,0.833333,42.6667,42.6667)">
                <circle cx="80.28" cy="431.72" r="36.983" style="fill-opacity:0.37;"/>
            </g>
            <g transform="matrix(0.833333,0,0,0.833333,42.6667,42.6667)">
                <circle cx="431.72" cy="431.72" r="36.983" style="fill-opacity:0.37;"/>
            </g>
            <g transform="matrix(0.833333,0,0,0.833333,42.6667,42.6667)">
                <circle cx="431.72" cy="80.28" r="36.983" style="fill-opacity:0.37;"/>
            </g>
            <g transform="matrix(0.833333,0,0,0.833333,42.6667,42.6667)">
                <circle cx="256" cy="256" r="144.64" style="fill-opacity:0.37;"/>
            </g>
            <g transform="matrix(0.833333,0,0,0.833333,42.6667,42.6667)">
                <ellipse cx="208.52" cy="229.59" rx="17.519" ry="13.951" style="fill-opacity:0.37;"/>
                <ellipse cx="303.48" cy="229.59" rx="17.519" ry="13.951" style="fill-opacity:0.37;"/>
            </g>
            <g transform="matrix(0.833333,0,0,0.833333,42.6667,42.6667)">
                <path d="M218.73,223.169C214.588,223.169 211.23,219.811 211.23,215.669L211.23,209.482C211.23,205.34 214.588,201.982 218.73,201.982C222.872,201.982 226.23,205.34 226.23,209.482L226.23,215.669C226.23,219.811 222.873,223.169 218.73,223.169Z" style="fill-opacity:0.37;fill-rule:nonzero;"/>
                <path d="M293.27,223.169C289.128,223.169 285.77,219.811 285.77,215.669L285.77,209.482C285.77,205.34 289.128,201.982 293.27,201.982C297.412,201.982 300.77,205.34 300.77,209.482L300.77,215.669C300.77,219.811 297.412,223.169 293.27,223.169Z" style="fill-opacity:0.37;fill-rule:nonzero;"/>
                <path d="M256,227.92C250.066,227.92 244.424,225.351 240.52,220.871C237.798,217.748 238.124,213.011 241.246,210.289C244.368,207.567 249.106,207.892 251.828,211.015C252.898,212.243 254.38,212.919 256,212.919C257.62,212.919 259.102,212.243 260.172,211.015C262.894,207.892 267.63,207.567 270.754,210.289C273.877,213.01 274.202,217.748 271.48,220.871C267.576,225.351 261.934,227.92 256,227.92Z" style="fill-opacity:0.37;fill-rule:nonzero;"/>
            </g>
            <g transform="matrix(0.833333,0,0,0.833333,42.6667,42.6667)">
                <path d="M400.447,263.5C400.574,261.016 400.639,258.516 400.639,256C400.639,253.484 400.574,250.984 400.447,248.5L342.919,248.5C342.101,228.548 338.038,209.012 330.927,190.691L380.995,190.691C382.306,190.691 383.537,190.353 384.609,189.762C382.102,184.904 379.327,180.209 376.305,175.691L324.281,175.691C322.353,171.832 320.294,168.037 318.081,164.325C305.756,143.65 289.467,125.802 270.549,112.087C265.764,111.609 260.91,111.361 255.999,111.361C251.088,111.361 246.235,111.609 241.449,112.087C222.531,125.802 206.242,143.65 193.917,164.325C191.704,168.037 189.645,171.832 187.717,175.691L135.693,175.691C132.671,180.209 129.896,184.904 127.389,189.762C128.461,190.353 129.692,190.691 131.003,190.691L181.071,190.691C173.96,209.012 169.897,228.548 169.079,248.5L111.551,248.5C111.424,250.984 111.359,253.484 111.359,256C111.359,258.516 111.424,261.016 111.551,263.5L169.079,263.5C169.897,283.452 173.96,302.988 181.071,321.309L131.003,321.309C129.692,321.309 128.461,321.647 127.389,322.238C129.896,327.096 132.671,331.791 135.693,336.309L187.717,336.309C189.645,340.168 191.704,343.963 193.917,347.675C206.242,368.35 222.531,386.198 241.449,399.913C246.234,400.391 251.088,400.639 255.999,400.639C260.91,400.639 265.763,400.392 270.549,399.913C289.467,386.198 305.756,368.35 318.081,347.675C320.294,343.963 322.353,340.168 324.281,336.309L376.305,336.309C379.327,331.791 382.102,327.096 384.609,322.238C383.537,321.647 382.306,321.309 380.995,321.309L330.927,321.309C338.038,302.988 342.101,283.452 342.919,263.5L400.447,263.5ZM256,120.252C274.608,132.523 293.477,151.267 307.242,175.691L204.758,175.691C218.523,151.266 237.392,132.522 256,120.252ZM256,391.749C237.392,379.478 218.523,360.734 204.758,336.31L307.242,336.31C293.477,360.734 274.608,379.478 256,391.749ZM314.706,321.309L197.294,321.309C189.884,304.242 185.01,284.901 184.079,263.5L327.921,263.5C326.99,284.901 322.116,304.242 314.706,321.309ZM184.079,248.5C185.01,227.099 189.884,207.758 197.294,190.691L314.705,190.691C322.115,207.758 326.989,227.099 327.921,248.5L184.079,248.5Z" style="fill-opacity:0.04;fill-rule:nonzero;"/>
            </g>
            <g transform="matrix(0.833333,0,0,0.833333,42.6667,42.6667)">
                <path d="M359.437,357.085C205.268,369.741 175.884,187.766 222.666,115.228C158.855,130.281 111.361,187.591 111.361,256C111.361,335.882 176.118,400.639 256,400.639C296.539,400.639 333.176,383.954 359.437,357.085Z" style="fill-opacity:0.04;fill-rule:nonzero;"/>
            </g>
            <g transform="matrix(0.833333,0,0,0.833333,42.6667,42.6667)">
                <path d="M113.021,97.489C71.595,111.365 56.581,60.865 73.399,43.951C56.265,47.178 43.3,62.213 43.3,80.284C43.3,100.709 59.858,117.268 80.283,117.268C94.496,117.267 106.828,109.247 113.021,97.489Z" style="fill-opacity:0.04;fill-rule:nonzero;"/>
            </g>
            <g transform="matrix(0.833333,0,0,0.833333,42.6667,42.6667)">
                <path d="M113.021,448.921C71.595,462.797 56.581,412.297 73.399,395.383C56.265,398.61 43.3,413.645 43.3,431.716C43.3,452.142 59.858,468.699 80.283,468.699C94.496,468.699 106.828,460.679 113.021,448.921Z" style="fill-opacity:0.04;fill-rule:nonzero;"/>
            </g>
            <g transform="matrix(0.833333,0,0,0.833333,42.6667,42.6667)">
                <path d="M464.453,448.921C423.027,462.797 408.013,412.297 424.831,395.383C407.697,398.611 394.733,413.645 394.733,431.716C394.733,452.142 411.291,468.699 431.716,468.699C445.928,468.699 458.26,460.679 464.453,448.921Z" style="fill-opacity:0.04;fill-rule:nonzero;"/>
            </g>
            <g transform="matrix(0.833333,0,0,0.833333,42.6667,42.6667)">
                <path d="M464.453,97.489C423.027,111.365 408.013,60.865 424.831,43.951C407.697,47.179 394.733,62.213 394.733,80.284C394.733,100.709 411.291,117.267 431.716,117.267C445.928,117.267 458.26,109.247 464.453,97.489Z" style="fill-opacity:0.04;fill-rule:nonzero;"/>
            </g>
        </g>
        <g id="icon1" serif:id="icon" transform="matrix(1,0,0,1,2.5,2.5)">
            <g transform="matrix(0.833333,0,0,0.833333,42.6667,42.6667)">
                <path d="M256,263.5C254.081,263.5 252.161,262.768 250.697,261.303L74.981,85.587C72.052,82.658 72.052,77.909 74.981,74.981C77.91,72.052 82.659,72.052 85.587,74.981L261.303,250.697C264.232,253.626 264.232,258.375 261.303,261.303C259.839,262.768 257.919,263.5 256,263.5Z" style="fill:rgb(184,219,255);fill-rule:nonzero;"/>
                <path d="M256,512C187.62,512 123.332,485.371 74.98,437.02C26.629,388.668 0,324.38 0,256C0,187.62 26.629,123.332 74.98,74.98C123.332,26.629 187.62,0 256,0C324.38,0 388.668,26.629 437.02,74.98C485.371,123.332 512,187.62 512,256C512,324.38 485.371,388.668 437.02,437.02C388.668,485.371 324.38,512 256,512ZM256,15C191.626,15 131.106,40.068 85.587,85.587C40.068,131.106 15,191.626 15,256C15,320.374 40.068,380.894 85.587,426.413C131.106,471.932 191.626,497 256,497C320.374,497 380.894,471.932 426.413,426.413C471.932,380.894 497,320.374 497,256C497,191.626 471.932,131.106 426.413,85.587C380.894,40.068 320.374,15 256,15Z" style="fill:rgb(184,219,255);fill-rule:nonzero;"/>
                <path d="M80.284,439.216C78.364,439.216 76.445,438.484 74.981,437.019C72.052,434.09 72.052,429.341 74.981,426.413L250.697,250.697C253.626,247.768 258.375,247.768 261.303,250.697C264.232,253.626 264.232,258.375 261.303,261.303L85.587,437.019C84.123,438.483 82.204,439.216 80.284,439.216Z" style="fill:rgb(184,219,255);fill-rule:nonzero;"/>
                <path d="M431.716,439.216C429.797,439.216 427.877,438.484 426.413,437.019L250.697,261.303C247.768,258.374 247.768,253.625 250.697,250.697C253.626,247.768 258.375,247.768 261.303,250.697L437.019,426.413C439.948,429.342 439.948,434.091 437.019,437.019C435.555,438.483 433.635,439.216 431.716,439.216Z" style="fill:rgb(184,219,255);fill-rule:nonzero;"/>
                <path d="M256,263.5C254.081,263.5 252.161,262.768 250.697,261.303C247.768,258.374 247.768,253.625 250.697,250.697L426.413,74.981C429.342,72.052 434.091,72.052 437.019,74.981C439.948,77.91 439.948,82.659 437.019,85.587L261.303,261.303C259.839,262.768 257.919,263.5 256,263.5Z" style="fill:rgb(184,219,255);fill-rule:nonzero;"/>
            </g>
            <g transform="matrix(0.833333,0,0,0.833333,42.6667,42.6667)">
                <circle cx="80.28" cy="80.28" r="36.983" style="fill:rgb(197,143,133);"/>
            </g>
            <g transform="matrix(0.833333,0,0,0.833333,42.6667,42.6667)">
                <circle cx="80.28" cy="431.72" r="36.983" style="fill:rgb(247,185,109);"/>
            </g>
            <g transform="matrix(0.833333,0,0,0.833333,42.6667,42.6667)">
                <circle cx="431.72" cy="431.72" r="36.983" style="fill:rgb(134,219,213);"/>
            </g>
            <g transform="matrix(0.833333,0,0,0.833333,42.6667,42.6667)">
                <circle cx="431.72" cy="80.28" r="36.983" style="fill:rgb(236,120,135);"/>
            </g>
            <g transform="matrix(0.833333,0,0,0.833333,42.6667,42.6667)">
                <circle cx="256" cy="256" r="144.64" style="fill:rgb(96,154,214);"/>
            </g>
            <g transform="matrix(0.833333,0,0,0.833333,42.6667,42.6667)">
                <ellipse cx="208.52" cy="229.59" rx="17.519" ry="13.951" style="fill:rgb(236,120,135);"/>
                <ellipse cx="303.48" cy="229.59" rx="17.519" ry="13.951" style="fill:rgb(236,120,135);"/>
            </g>
            <g transform="matrix(0.833333,0,0,0.833333,42.6667,42.6667)">
                <path d="M218.73,223.169C214.588,223.169 211.23,219.811 211.23,215.669L211.23,209.482C211.23,205.34 214.588,201.982 218.73,201.982C222.872,201.982 226.23,205.34 226.23,209.482L226.23,215.669C226.23,219.811 222.873,223.169 218.73,223.169Z" style="fill:rgb(73,80,89);fill-rule:nonzero;"/>
                <path d="M293.27,223.169C289.128,223.169 285.77,219.811 285.77,215.669L285.77,209.482C285.77,205.34 289.128,201.982 293.27,201.982C297.412,201.982 300.77,205.34 300.77,209.482L300.77,215.669C300.77,219.811 297.412,223.169 293.27,223.169Z" style="fill:rgb(73,80,89);fill-rule:nonzero;"/>
                <path d="M256,227.92C250.066,227.92 244.424,225.351 240.52,220.871C237.798,217.748 238.124,213.011 241.246,210.289C244.368,207.567 249.106,207.892 251.828,211.015C252.898,212.243 254.38,212.919 256,212.919C257.62,212.919 259.102,212.243 260.172,211.015C262.894,207.892 267.63,207.567 270.754,210.289C273.877,213.01 274.202,217.748 271.48,220.871C267.576,225.351 261.934,227.92 256,227.92Z" style="fill:rgb(73,80,89);fill-rule:nonzero;"/>
            </g>
            <g transform="matrix(0.833333,0,0,0.833333,42.6667,42.6667)">
                <path d="M400.447,263.5C400.574,261.016 400.639,258.516 400.639,256C400.639,253.484 400.574,250.984 400.447,248.5L342.919,248.5C342.101,228.548 338.038,209.012 330.927,190.691L380.995,190.691C382.306,190.691 383.537,190.353 384.609,189.762C382.102,184.904 379.327,180.209 376.305,175.691L324.281,175.691C322.353,171.832 320.294,168.037 318.081,164.325C305.756,143.65 289.467,125.802 270.549,112.087C265.764,111.609 260.91,111.361 255.999,111.361C251.088,111.361 246.235,111.609 241.449,112.087C222.531,125.802 206.242,143.65 193.917,164.325C191.704,168.037 189.645,171.832 187.717,175.691L135.693,175.691C132.671,180.209 129.896,184.904 127.389,189.762C128.461,190.353 129.692,190.691 131.003,190.691L181.071,190.691C173.96,209.012 169.897,228.548 169.079,248.5L111.551,248.5C111.424,250.984 111.359,253.484 111.359,256C111.359,258.516 111.424,261.016 111.551,263.5L169.079,263.5C169.897,283.452 173.96,302.988 181.071,321.309L131.003,321.309C129.692,321.309 128.461,321.647 127.389,322.238C129.896,327.096 132.671,331.791 135.693,336.309L187.717,336.309C189.645,340.168 191.704,343.963 193.917,347.675C206.242,368.35 222.531,386.198 241.449,399.913C246.234,400.391 251.088,400.639 255.999,400.639C260.91,400.639 265.763,400.392 270.549,399.913C289.467,386.198 305.756,368.35 318.081,347.675C320.294,343.963 322.353,340.168 324.281,336.309L376.305,336.309C379.327,331.791 382.102,327.096 384.609,322.238C383.537,321.647 382.306,321.309 380.995,321.309L330.927,321.309C338.038,302.988 342.101,283.452 342.919,263.5L400.447,263.5ZM256,120.252C274.608,132.523 293.477,151.267 307.242,175.691L204.758,175.691C218.523,151.266 237.392,132.522 256,120.252ZM256,391.749C237.392,379.478 218.523,360.734 204.758,336.31L307.242,336.31C293.477,360.734 274.608,379.478 256,391.749ZM314.706,321.309L197.294,321.309C189.884,304.242 185.01,284.901 184.079,263.5L327.921,263.5C326.99,284.901 322.116,304.242 314.706,321.309ZM184.079,248.5C185.01,227.099 189.884,207.758 197.294,190.691L314.705,190.691C322.115,207.758 326.989,227.099 327.921,248.5L184.079,248.5Z" style="fill-opacity:0.1;fill-rule:nonzero;"/>
            </g>
            <g transform="matrix(0.833333,0,0,0.833333,42.6667,42.6667)">
                <path d="M359.437,357.085C205.268,369.741 175.884,187.766 222.666,115.228C158.855,130.281 111.361,187.591 111.361,256C111.361,335.882 176.118,400.639 256,400.639C296.539,400.639 333.176,383.954 359.437,357.085Z" style="fill-opacity:0.1;fill-rule:nonzero;"/>
            </g>
            <g transform="matrix(0.833333,0,0,0.833333,42.6667,42.6667)">
                <path d="M113.021,97.489C71.595,111.365 56.581,60.865 73.399,43.951C56.265,47.178 43.3,62.213 43.3,80.284C43.3,100.709 59.858,117.268 80.283,117.268C94.496,117.267 106.828,109.247 113.021,97.489Z" style="fill-opacity:0.1;fill-rule:nonzero;"/>
            </g>
            <g transform="matrix(0.833333,0,0,0.833333,42.6667,42.6667)">
                <path d="M113.021,448.921C71.595,462.797 56.581,412.297 73.399,395.383C56.265,398.61 43.3,413.645 43.3,431.716C43.3,452.142 59.858,468.699 80.283,468.699C94.496,468.699 106.828,460.679 113.021,448.921Z" style="fill-opacity:0.1;fill-rule:nonzero;"/>
            </g>
            <g transform="matrix(0.833333,0,0,0.833333,42.6667,42.6667)">
                <path d="M464.453,448.921C423.027,462.797 408.013,412.297 424.831,395.383C407.697,398.611 394.733,413.645 394.733,431.716C394.733,452.142 411.291,468.699 431.716,468.699C445.928,468.699 458.26,460.679 464.453,448.921Z" style="fill-opacity:0.1;fill-rule:nonzero;"/>
            </g>
            <g transform="matrix(0.833333,0,0,0.833333,42.6667,42.6667)">
                <path d="M464.453,97.489C423.027,111.365 408.013,60.865 424.831,43.951C407.697,47.179 394.733,62.213 394.733,80.284C394.733,100.709 411.291,117.267 431.716,117.267C445.928,117.267 458.26,109.247 464.453,97.489Z" style="fill-opacity:0.1;fill-rule:nonzero;"/>
            </g>
        </g>
    </g>
</svg>
